<svg width="20" height="20" viewBox="0 0 20 20" fill="none" xmlns="http://www.w3.org/2000/svg">
<path d="M4.66756 0.000254559C4.41313 0.00372809 4.26029 0.0271744 4.26029 0.0271744L3.36499 0.108802L3.47353 1.00411C3.47353 1.00411 3.68716 2.98836 5.10175 4.45072C2.23175 4.89446 0 7.26255 0 10.1491C0 13.2631 1.38768 15.7328 3.01242 17.3948C3.74298 18.1517 4.5849 18.7924 5.50903 19.2949C6.33312 19.7351 7.08948 20 7.81545 20C8.29046 20 8.75157 19.9184 9.17274 19.7829C9.4263 19.7013 9.67814 19.7013 9.9317 19.7829C10.3529 19.9184 10.814 20 11.289 20C12.0757 20 12.8321 19.6674 13.6501 19.1585C14.4673 18.6497 15.3192 17.9445 16.1189 17.0692C17.7211 15.322 19.1044 12.8966 19.1044 10.1491C19.1044 6.94385 16.3465 4.36909 13.0258 4.36909C12.1339 4.36909 11.309 4.58619 10.5561 4.93875C10.5526 4.91531 10.5361 4.87449 10.5292 4.8302C10.9738 2.51336 12.5916 1.65539 12.5916 1.65539L11.7232 0.135722C11.7232 0.135722 10.4988 0.872112 9.60606 2.44215C9.3021 1.97922 8.92698 1.56716 8.49453 1.2212C7.1164 0.121828 5.4274 -0.00669251 4.66756 0.000254559V0.000254559ZM5.50903 1.84557C6.10908 1.93675 6.85242 2.13387 7.40818 2.57762C7.97524 3.02918 8.35472 3.69089 8.57529 4.26054C7.97176 4.17197 7.2154 3.95227 6.64835 3.50071C6.08911 3.05262 5.7296 2.41176 5.50903 1.84557V1.84557ZM6.07869 6.10586C7.20758 6.10586 8.2123 6.51661 8.98256 7.16442L9.55222 7.62553L10.1219 7.16442C10.9338 6.4786 11.9629 6.10344 13.0258 6.10586C15.4616 6.10586 17.3677 7.94076 17.3677 10.1491C17.3677 12.3026 16.2388 14.3824 14.8441 15.9021C14.2218 16.5836 13.5095 17.1773 12.727 17.6667C12.0627 18.0765 11.4592 18.2632 11.289 18.2632C11.0042 18.2632 10.7358 18.212 10.4744 18.1278C9.87453 17.9344 9.22904 17.9344 8.62913 18.1278C8.36861 18.212 8.10028 18.2632 7.81545 18.2632C7.58099 18.2632 6.9818 18.1278 6.3227 17.7743C5.66447 17.4218 4.91852 16.8756 4.23337 16.1739C2.86306 14.7697 1.73677 12.7542 1.73677 10.1491C1.73677 7.94076 3.64287 6.10586 6.07869 6.10586Z" fill="black"/>
</svg>
