<svg width="20" height="20" viewBox="0 0 20 20" fill="none" xmlns="http://www.w3.org/2000/svg">
<path d="M6.47 3.98C6.95 3.7 7.47 3.47 8 3.31V2.03C8 0.93 8.87 0.03 9.97 0C11.13 0.03 12 0.93 12 2.03V3.31C12.53 3.48 13.05 3.7 13.53 3.98L11.93 6.1H8.07L6.47 3.98ZM17 10.03C17 10.53 16.95 10.98 16.86 11.43L14.33 10.65L13.14 6.99L14.74 4.88C15.17 5.28 15.55 5.73 15.88 6.23C16.67 6.16 17.43 6.28 18.11 6.62C19.14 7.15 19.84 8.16 20 9.31L17 9.67V10.03ZM3 10.03V9.68L0 9.31C0.16 8.16 0.86 7.15 1.89 6.62C2.56592 6.2786 3.33349 6.16294 4.08 6.29C4.41 5.78 4.79 5.31 5.24 4.9L6.86 6.98L5.67 10.65L3.14 11.43C3.05 10.98 3 10.53 3 10.03ZM8.24 7.6H11.76L12.85 10.96L10 13.03L7.15 10.96L8.24 7.6ZM6.13 12.08L9.25 14.34V16.99C8.68 16.93 8.13 16.8 7.62 16.61L6.39 19.37C5.86769 19.1384 5.41031 18.7819 5.05808 18.3321C4.70584 17.8822 4.46956 17.3526 4.37 16.79C4.23 16.03 4.35 15.27 4.69 14.59C4.24 14.07 3.87 13.49 3.59 12.85L6.13 12.08ZM13.87 12.08L16.41 12.85C16.13 13.49 15.76 14.07 15.31 14.59C15.65 15.27 15.77 16.03 15.64 16.79C15.5366 17.3526 15.2977 17.8815 14.944 18.331C14.5903 18.7805 14.1324 19.1371 13.61 19.37L12.39 16.61C11.86 16.8 11.33 16.97 10.75 17.03V14.34L13.87 12.08Z" fill="black"/>
</svg>
